<svg height="400" style='style="outline: 5px solid #800000;"' viewBox="0 0 400 400" width="400" xmlns="http://www.w3.org/2000/svg">
<rect fill="#ffffff" height="400" width="400" x="0" y="0"/>
<path d="M200,200 L200,200 L200,200 L200,0 L200,-200 L200,560 L200,0 L200,-360 L200,200 L280,200 L280,200 L280,-40 L280,200 L400,200 L400,200 L400,-80 L400,320 L400,560 L200,200 L200,200 L-120,200 L320,200 L560,200 L200,200 L200,200 L200,280 L200,280 L-40,280 L400,280 L400,280 L400,280 L80,280 L-240,280 L200,280 L200,280 L200,280 L200,480 L200,200 L80,200 L0,200 L0,200" fill="none" stroke="#2f2f2f" stroke-opacity="0.9" stroke-width="5"/>
<rect fill="#ffffff" fill-opacity="0.0" height="400" stroke="#cccccc" stroke-width="15" width="400" x="0" y="0"/>
</svg>