<svg height="400" style='style="outline: 5px solid #800000;"' viewBox="0 0 400 400" width="400" xmlns="http://www.w3.org/2000/svg">
<rect fill="#ffffff" height="400" width="400" x="0" y="0"/>
<path d="M200,200 L200,480 L200,80 L200,0 L200,-160 L200,200 L200,200 L200,120 L200,120 L120,120 L-40,120 L200,120 L200,320 L200,320 L200,320 L200,440 L200,-160 L200,320 L200,200 L200,240 L200,600 L200,200 L200,200 L200,200 L200,200 L-120,200 L280,200 L280,200 L280,40 L280,-40 L280,200 L280,200 L280,240 L280,560 L280,40 L280,40 L240,40 L240,40 L240,0 L240,-280 L240,400" fill="none" stroke="#2f2f2f" stroke-opacity="0.9" stroke-width="5"/>
<rect fill="#ffffff" fill-opacity="0.0" height="400" stroke="#cccccc" stroke-width="15" width="400" x="0" y="0"/>
</svg>