<svg height="400" style='style="outline: 5px solid #800000;"' viewBox="0 0 400 400" width="400" xmlns="http://www.w3.org/2000/svg">
<rect fill="#ffffff" height="400" width="400" x="0" y="0"/>
<path d="M200,200 L200,560 L200,-80 L200,520 L200,40 L200,40 L80,40 L0,40 L-240,40 L360,40 L640,40 L120,40 L-80,40 L440,40 L200,200 L80,200 L-120,200 L280,200 L280,200 L280,160 L280,0 L280,0 L320,0 L320,0 L320,280 L200,200 L200,400 L200,400 L120,400 L0,400 L0,400 L0,760 L0,-40 L0,480 L0,-80 L0,200 L-200,200 L200,200 L200,200 L480,200 L200,200" fill="none" stroke="#2f2f2f" stroke-opacity="0.9" stroke-width="5"/>
<rect fill="#ffffff" fill-opacity="0.0" height="400" stroke="#cccccc" stroke-width="15" width="400" x="0" y="0"/>
</svg>